<?xml version="1.0" encoding="UTF-8" standalone="no"?>
<!DOCTYPE svg PUBLIC "-//W3C//DTD SVG 1.1//EN" "http://www.w3.org/Graphics/SVG/1.1/DTD/svg11.dtd">
<svg width="100%" height="100%" viewBox="0 0 1280 800" version="1.1" xmlns="http://www.w3.org/2000/svg" xmlns:xlink="http://www.w3.org/1999/xlink" xml:space="preserve" xmlns:serif="http://www.serif.com/" style="fill-rule:evenodd;clip-rule:evenodd;stroke-linejoin:round;stroke-miterlimit:2;">
    <g transform="matrix(1,0,0,1,-1380,-2000)">
        <g transform="matrix(0.833876,0,0,0.768492,312.638,2000)">
            <rect id="_16:10" serif:id="16:10" x="1280" y="0" width="1535" height="1041" style="fill:none;"/>
            <clipPath id="_clip1">
                <rect id="_16:101" serif:id="16:10" x="1280" y="0" width="1535" height="1041"/>
            </clipPath>
            <g clip-path="url(#_clip1)">
                <g transform="matrix(1.19922,0,0,1.30125,-446.875,0)">
                    <path d="M1440,712L1459,712L1459,711.962L1837.42,711.014L2315.42,234L1440,234L1440,0L2720,0L2720,800L1440,800L1440,712Z" style="fill:rgb(153,56,232);"/>
                </g>
                <g transform="matrix(1.19922,0,0,1.30125,-446.875,0)">
                    <path d="M1440,712L1459,712L1459,711.962L1837.42,711.014L2315.42,234L1440,234L1440,230L2326,230L1840,714.998L1440,716L1440,712Z"/>
                </g>
                <g transform="matrix(1.19922,0,0,1.30125,-446.875,0)">
                    <path d="M1581.56,715.645C1600.65,745.715 1622.39,773.943 1646.45,800L1619.6,800C1596.79,773.77 1576.18,745.575 1558.06,715.704L1581.56,715.645ZM1494.04,230C1518.98,144.006 1562.36,65.817 1619.6,-0L1646.45,-0C1586.54,64.897 1541,143.255 1514.9,230L1494.04,230ZM2540.4,-0C2633.57,107.123 2690,247.023 2690,400C2690,552.977 2633.57,692.877 2540.4,800L2513.55,800C2610.65,694.823 2670,554.288 2670,400C2670,245.712 2610.65,105.177 2513.55,0L2540.4,-0Z" style="fill:rgb(130,194,5);"/>
                </g>
                <g transform="matrix(1.19922,0,0,1.30125,-446.875,0)">
                    <path d="M1810.01,715.073C1855.56,754.153 1909.68,783.533 1969.13,800L1884.9,800C1840.65,778.356 1800.51,749.584 1765.98,715.183L1810.01,715.073ZM1668.68,230C1669.92,226.996 1671.2,224.009 1672.51,221.039C1665.35,213.07 1661,202.539 1661,191C1661,166.164 1681.16,146 1706,146C1708.78,146 1711.5,146.253 1714.15,146.737C1757.41,84.385 1816.2,33.602 1884.9,0L1969.13,0C1875.31,25.984 1794.8,84.126 1740.22,161.79C1746.94,169.653 1751,179.856 1751,191C1751,207.662 1741.92,222.221 1728.45,230L1668.68,230ZM2275.1,-0C2423.02,72.351 2525,224.36 2525,400C2525,447.541 2517.53,493.35 2503.7,536.318C2528.54,552.344 2545,580.265 2545,612C2545,661.672 2504.67,702 2455,702C2440.68,702 2427.13,698.646 2415.1,692.681C2376.24,737.131 2328.68,773.792 2275.1,800L2190.87,800C2269.22,778.3 2338.29,734.172 2390.73,674.975C2374.82,658.738 2365,636.506 2365,612C2365,562.328 2405.33,522 2455,522C2462.22,522 2469.25,522.853 2475.98,524.463C2488.34,485.165 2495,443.354 2495,400C2495,209.346 2366.16,48.548 2190.87,0L2275.1,-0Z" style="fill:rgb(2,167,244);"/>
                </g>
                <g transform="matrix(7.7369,0,0,1.35951,-1030.89,-246.228)">
                    <path d="M506.85,608L413.85,608L403,675L496,675L506.85,608Z" style="fill:rgb(255,0,112);"/>
                </g>
                <g transform="matrix(7.7369,0,0,1.35951,-1286.33,14.0224)">
                    <path d="M506.85,608L413.85,608L403,675L496,675L506.85,608Z"/>
                </g>
                <g transform="matrix(7.7369,0,0,1.35951,-1161.61,-121.308)">
                    <path d="M506.85,608L413.85,608L403,675L496,675L506.85,608Z"/>
                </g>
                <g transform="matrix(7.7369,0,0,1.35951,-1036.89,-256.638)">
                    <path d="M506.85,608L413.85,608L403,675L496,675L506.85,608Z"/>
                </g>
                <g transform="matrix(7.7369,0,0,1.35951,-912.172,-391.968)">
                    <path d="M506.85,608L413.85,608L403,675L496,675L506.85,608Z"/>
                </g>
                <g transform="matrix(7.7369,0,0,1.35951,-786.254,-527.298)">
                    <path d="M506.85,608L413.85,608L403,675L496,675L506.85,608Z"/>
                </g>
                <g transform="matrix(1.19922,0,0,1.30125,1280,52.05)">
                    <path d="M640,44L840,44L882,84L840,124L700,124L685,109L670,124L655,109L640,124L640,44Z" style="fill:rgb(2,171,0);"/>
                </g>
                <g transform="matrix(-1.19922,0,0,1.30125,2815,52.05)">
                    <path d="M640,44L840,44L882,84L840,124L700,124L685,109L670,124L655,109L640,124L640,44Z" style="fill:rgb(233,1,1);"/>
                </g>
                <g transform="matrix(1.19922,0,0,1.30125,1280,24.7237)">
                    <path d="M440,141L398,101L440,61L840,61L882,101L840,141L700,141L685,126L670,141L655,126L640,141L625,126L610,141L595,126L580,141L440,141Z" style="fill:rgb(1,35,192);"/>
                </g>
            </g>
        </g>
    </g>
</svg>
