<?xml version="1.0" encoding="UTF-8" standalone="no"?>
<!DOCTYPE svg PUBLIC "-//W3C//DTD SVG 1.1//EN" "http://www.w3.org/Graphics/SVG/1.1/DTD/svg11.dtd">
<svg width="100%" height="100%" viewBox="0 0 1280 720" version="1.1" xmlns="http://www.w3.org/2000/svg" xmlns:xlink="http://www.w3.org/1999/xlink" xml:space="preserve" xmlns:serif="http://www.serif.com/" style="fill-rule:evenodd;clip-rule:evenodd;stroke-linejoin:round;stroke-miterlimit:2;">
    <g transform="matrix(1,0,0,1,-2.84217e-14,-2002)">
        <g transform="matrix(1,0,0,1,2.84217e-14,2002)">
            <rect id="_16:9" serif:id="16:9" x="0" y="0" width="1280" height="720" style="fill:none;"/>
            <clipPath id="_clip1">
                <rect id="_16:91" serif:id="16:9" x="0" y="0" width="1280" height="720"/>
            </clipPath>
            <g clip-path="url(#_clip1)">
                <path d="M0,672L19,672L19,671.962L397.416,671.014L875.416,194L0,194L0,0L1280,0L1280,720L0,720L0,672Z" style="fill:rgb(153,56,232);"/>
                <path d="M0,672L19,672L19,671.962L397.416,671.014L875.416,194L0,194L0,190L886,190L400,674.998L0,676L0,672Z"/>
                <path d="M370.011,675.073C389.674,691.942 410.933,707.004 433.527,720L378.501,720C359.848,706.422 342.29,691.43 325.983,675.183L370.011,675.073ZM228.677,190C229.921,186.996 231.197,184.009 232.505,181.039C225.353,173.07 221,162.539 221,151C221,126.164 241.164,106 266,106C268.781,106 271.504,106.253 274.146,106.737C302.705,65.579 338.028,29.462 378.501,0L433.527,-0C380.679,30.398 335.14,72.098 300.221,121.79C306.941,129.653 311,139.856 311,151C311,167.662 301.925,182.221 288.451,190L228.677,190ZM901.499,-0C1012.68,80.934 1085,212.088 1085,360C1085,407.541 1077.53,453.35 1063.7,496.318C1088.54,512.344 1105,540.265 1105,572C1105,621.672 1064.67,662 1015,662C1000.68,662 987.127,658.646 975.1,652.681C953.174,677.76 928.481,700.359 901.499,720L846.473,720C885.704,697.435 920.906,668.642 950.727,634.975C934.816,618.738 925,596.506 925,572C925,522.328 965.328,482 1015,482C1022.22,482 1029.25,482.853 1035.98,484.463C1048.34,445.165 1055,403.354 1055,360C1055,206.099 971.044,71.652 846.473,0L901.499,-0Z" style="fill:rgb(2,167,244);"/>
                <path d="M141.56,675.645C151.259,690.92 161.64,705.719 172.661,720L147.642,720C137.16,705.695 127.286,690.917 118.059,675.704L141.56,675.645ZM54.043,190C74.106,120.824 106.098,56.698 147.642,-0L172.661,0C129.302,56.185 95.841,120.393 74.901,190L54.043,190ZM1132.36,-0C1206.31,100.931 1250,225.404 1250,360C1250,494.596 1206.31,619.069 1132.36,720L1107.34,720C1184.24,620.356 1230,495.48 1230,360C1230,224.52 1184.24,99.644 1107.34,0L1132.36,-0Z" style="fill:rgb(130,194,5);"/>
                <g transform="matrix(6.45161,0,0,1.04478,-1927,-229.224)">
                    <path d="M506.85,608L413.85,608L403,675L496,675L506.85,608Z" style="fill:rgb(239,40,90);"/>
                </g>
                <g transform="matrix(6.45161,0,0,1.04478,-2140,-29.2239)">
                    <path d="M506.85,608L413.85,608L403,675L496,675L506.85,608Z"/>
                </g>
                <g transform="matrix(6.45161,0,0,1.04478,-2036,-133.224)">
                    <path d="M506.85,608L413.85,608L403,675L496,675L506.85,608Z"/>
                </g>
                <g transform="matrix(6.45161,0,0,1.04478,-1932,-237.224)">
                    <path d="M506.85,608L413.85,608L403,675L496,675L506.85,608Z"/>
                </g>
                <g transform="matrix(6.45161,0,0,1.04478,-1828,-341.224)">
                    <path d="M506.85,608L413.85,608L403,675L496,675L506.85,608Z"/>
                </g>
                <g transform="matrix(6.45161,0,0,1.04478,-1723,-445.224)">
                    <path d="M506.85,608L413.85,608L403,675L496,675L506.85,608Z"/>
                </g>
                <path d="M640,44L840,44L882,84L840,124L700,124L685,109L670,124L655,109L640,124L640,44Z" style="fill:rgb(2,171,0);"/>
                <g transform="matrix(-1,0,0,1,1280,0)">
                    <path d="M640,44L840,44L882,84L840,124L700,124L685,109L670,124L655,109L640,124L640,44Z" style="fill:rgb(233,1,1);"/>
                </g>
                <g transform="matrix(1,0,0,1,0,-21)">
                    <path d="M440,141L398,101L440,61L840,61L882,101L840,141L700,141L685,126L670,141L655,126L640,141L625,126L610,141L595,126L580,141L440,141Z" style="fill:rgb(1,35,192);"/>
                </g>
            </g>
        </g>
    </g>
</svg>
